<?xml version="1.0" encoding="UTF-8"?><svg xmlns="http://www.w3.org/2000/svg" xmlns:xlink="http://www.w3.org/1999/xlink" version="1.1" x="0px" y="0px" viewBox="0 0 32 32" xml:space="preserve"><g id="Layer_7"><path fill="#999" d="M16 0C7.163 0 0 7.163 0 16c0 8.836 7.163 16 16 16s16-7.164 16-16c0-8.837-7.163-16-16-16z"/><path fill="#FFF" d="M22.057 7.93H9.943c-1.14 0-2.019.879-2.019 2.019v12.113c0 1.14.879 2.019 2.019 2.019h12.113c1.14 0 2.019-.879 2.019-2.019V9.949a1.986 1.986 0 0 0-2.018-2.019zm-6.045 4.903c1.791 0 3.243 1.407 3.243 3.142 0 1.735-1.452 3.142-3.243 3.142-1.79 0-3.242-1.408-3.242-3.142 0-1.736 1.452-3.142 3.242-3.142zm6.045 8.724c0 .354-.151.505-.505.505H10.448c-.353 0-.505-.151-.505-.505v-7.066l1.258.274a4.7 4.7 0 0 0-.208 1.385c0 2.684 2.248 4.863 5.018 4.863 2.772 0 5.019-2.178 5.019-4.863a4.7 4.7 0 0 0-.208-1.385l1.234-.274v7.066zm0-9.085a.505.505 0 0 1-.505.505h-2.019a.505.505 0 0 1-.505-.505v-2.019c0-.279.226-.505.505-.505h2.019c.279 0 .505.226.505.505v2.019z"/></g><metadata><rdf:RDF xmlns:rdf="http://www.w3.org/1999/02/22-rdf-syntax-ns#" xmlns:rdfs="http://www.w3.org/2000/01/rdf-schema#" xmlns:dc="http://purl.org/dc/elements/1.1/"><rdf:Description about="https://iconscout.com/legal#licenses" dc:title="free,social,artboard" dc:description="free,social,artboard" dc:publisher="Iconscout" dc:date="2017-09-15" dc:format="image/svg+xml" dc:language="en"><dc:creator><rdf:Bag><rdf:li>Epicflaticon by Alfredo</rdf:li></rdf:Bag></dc:creator></rdf:Description></rdf:RDF></metadata></svg>