<?xml version="1.0" encoding="UTF-8"?><svg xmlns="http://www.w3.org/2000/svg" xmlns:xlink="http://www.w3.org/1999/xlink" version="1.1" x="0px" y="0px" viewBox="0 0 32 32" xml:space="preserve"><g id="Layer_7"><path fill="#999" d="M16 0C7.163 0 0 7.163 0 16c0 8.836 7.163 16 16 16s16-7.164 16-16c0-8.837-7.163-16-16-16z"/><path fill="#FFF" d="M24.294 22.942v-6.137c0-3.288-1.755-4.818-4.096-4.818-1.889 0-2.735 1.039-3.206 1.768v-1.517h-3.558c.047 1.005 0 10.704 0 10.704h3.558v-5.978c0-.319.023-.639.117-.867.257-.639.842-1.301 1.825-1.301 1.288 0 1.803.981 1.803 2.42v5.727l3.557-.001zM9.685 10.777c1.24 0 2.013-.823 2.013-1.85-.023-1.05-.773-1.849-1.99-1.849s-2.012.799-2.012 1.849c0 1.028.772 1.85 1.967 1.85h.022zm1.779 12.165V12.238H7.907v10.704h3.557z"/></g><metadata><rdf:RDF xmlns:rdf="http://www.w3.org/1999/02/22-rdf-syntax-ns#" xmlns:rdfs="http://www.w3.org/2000/01/rdf-schema#" xmlns:dc="http://purl.org/dc/elements/1.1/"><rdf:Description about="https://iconscout.com/legal#licenses" dc:title="linkedin,online,social,media" dc:description="linkedin,online,social,media" dc:publisher="Iconscout" dc:date="2017-09-15" dc:format="image/svg+xml" dc:language="en"><dc:creator><rdf:Bag><rdf:li>Epicflaticon by Alfredo</rdf:li></rdf:Bag></dc:creator></rdf:Description></rdf:RDF></metadata></svg>